<?xml version="1.0" encoding="utf-8"?>
<!-- Generator: Adobe Illustrator 16.0.0, SVG Export Plug-In . SVG Version: 6.00 Build 0)  -->
<!DOCTYPE svg PUBLIC "-//W3C//DTD SVG 1.1//EN" "http://www.w3.org/Graphics/SVG/1.1/DTD/svg11.dtd">
<svg version="1.1" id="Layer_1" xmlns="http://www.w3.org/2000/svg" xmlns:xlink="http://www.w3.org/1999/xlink" x="0px" y="0px"
	 width="1000px" height="1000px" viewBox="0 0 1000 1000" enable-background="new 0 0 1000 1000" xml:space="preserve">
<path id="Infinity_2_" fill="#204185" d="M420.325,548.662l13.085,28.637c45.65,100.367,92.399,228.689,208.161,224.775
	c123.811-4.183,267.792-167.712,306.385-339.816c43.09-192.173-45.749-268.652-140.015-249.555
	c-79.571,16.122-241.847,157.721-324.209,222.872c0,0-1.171,0.874-1.57,2.3c-0.403,1.443,0.547,3.221,0.547,3.221l17.551,32.942
	c0,0,0.857,1.764,2.699,2.254c1.976,0.526,3.434-0.843,3.434-0.843c46.447-37.53,144.244-106.875,169.766-126.073
	c57.169-43.004,89.919-67.652,140.178-50.827c82.622,27.661,76.56,188.45-31.62,320.675
	c-92.028,112.482-179.3,98.043-220.337,37.927c-14.931-21.87-39.317-72.521-69.564-133.608c-6.263-12.65-25.52-47.326-33.954-63.43
	c0,0-0.638-1.579-2.524-2.085c-1.887-0.507-3.533,0.751-3.533,0.751l-53.086,41.942c0,0-121.839,93.371-149.743,114.021
	c-50.842,37.623-100.208,46.407-127.927,19.486c-26.274-25.52-49.729-126.943,28.791-234.583
	c63.941-87.653,136.106-75.021,199.606,18.02c5.463,8.005,21.034,36.49,31.092,55.637c0,0,0.813,1.656,2.607,2.071
	c1.795,0.414,3.267-0.813,3.267-0.813l52.801-41.882c0,0,1.228-0.696,1.596-2.377c0.353-1.61-0.542-2.924-0.542-2.924
	c-36.418-69.421-76.643-117.225-129.75-139.258c-56.504-23.443-174.418-40.606-256.865,170.418
	C8.319,582.24,40.358,751.571,158.166,723.007c63.984-15.514,206.729-135.243,256.441-175.663c0,0,1.38-1.104,3.22-0.659
	C419.667,547.13,420.325,548.662,420.325,548.662z"/>
</svg>
