<?xml version="1.0" encoding="utf-8"?>
<!-- Generator: Adobe Illustrator 22.0.1, SVG Export Plug-In . SVG Version: 6.00 Build 0)  -->
<svg version="1.1" id="Layer_1" xmlns="http://www.w3.org/2000/svg" xmlns:xlink="http://www.w3.org/1999/xlink" x="0px" y="0px"
	 viewBox="0 0 4004 800" style="enable-background:new 0 0 4004 800;" xml:space="preserve">
<style type="text/css">
	.st0{fill:#1A3E85;}
</style>
<g id="Main_Layout">
	<g>
		<g id="WebXpress">
			<g>
				<path d="M1262.7,530.3L1172.4,152h78.2l57,259.9l69.2-259.9h90.8l66.3,264.3L1592,152h76.9L1577,530.3h-81l-75.4-282.8
					l-75.1,282.8H1262.7z"/>
				<path d="M1856.5,443l72.3,12.1c-9.3,26.5-24,46.7-44,60.5c-20,13.9-45.1,20.8-75.2,20.8c-47.7,0-82.9-15.6-105.8-46.7
					c-18.1-24.9-27.1-56.4-27.1-94.5c0-45.4,11.9-81,35.6-106.7s53.8-38.6,90.1-38.6c40.8,0,72.9,13.5,96.5,40.4
					s34.8,68.2,33.8,123.7H1751c0.5,21.5,6.4,38.2,17.6,50.2s25.1,17.9,41.8,17.9c11.4,0,20.9-3.1,28.6-9.3
					C1846.7,466.8,1852.6,456.8,1856.5,443z M1860.7,369.7c-0.5-21-5.9-36.9-16.3-47.9c-10.3-10.9-22.9-16.4-37.7-16.4
					c-15.8,0-28.9,5.8-39.2,17.3c-10.3,11.5-15.4,27.2-15.2,47H1860.7z"/>
				<path d="M1979.5,530.3V151.9h72.5v136.3c22.4-25.5,48.9-38.2,79.5-38.2c33.4,0,61,12.1,82.8,36.3s32.8,58.9,32.8,104.1
					c0,46.8-11.1,82.8-33.4,108.1c-22.3,25.3-49.3,37.9-81.2,37.9c-15.7,0-31.1-3.9-46.3-11.7s-28.3-19.4-39.4-34.7v40.3H1979.5z
					 M2051.5,387.3c0,28.4,4.5,49.4,13.4,63c12.6,19.3,29.2,28.9,50.1,28.9c16,0,29.6-6.8,40.9-20.5c11.3-13.7,16.9-35.2,16.9-64.6
					c0-31.3-5.7-53.9-17-67.7c-11.4-13.8-25.9-20.8-43.6-20.8c-17.4,0-31.8,6.8-43.4,20.3C2057.2,339.2,2051.5,359.8,2051.5,387.3z"
					/>
			</g>
			<g>
				<path class="st0" d="M2249.1,530.3l129.3-197.4L2261.2,152h89.3l75.9,121.5l74.3-121.5h88.5l-117.7,183.7l129.3,194.6h-92.1
					l-83.9-130.8l-84.1,130.8L2249.1,530.3L2249.1,530.3z"/>
				<path class="st0" d="M2620,256.2h67.6v40.3c8.8-13.8,20.6-24.9,35.6-33.5s31.6-12.9,49.8-12.9c31.8,0,58.8,12.5,81,37.4
					s33.3,59.7,33.3,104.3c0,45.8-11.2,81.3-33.6,106.7c-22.4,25.4-49.5,38.1-81.3,38.1c-15.1,0-28.9-3-41.2-9s-25.3-16.3-38.8-31
					v138.1H2620V256.2L2620,256.2z M2691.8,388.6c0,30.8,6.1,53.5,18.3,68.3c12.2,14.7,27.1,22.1,44.6,22.1
					c16.9,0,30.9-6.7,42.1-20.3c11.2-13.5,16.8-35.7,16.8-66.5c0-28.7-5.8-50.1-17.3-64s-25.8-20.9-42.8-20.9
					c-17.7,0-32.4,6.8-44.1,20.5C2697.6,341.5,2691.8,361.7,2691.8,388.6z"/>
				<path class="st0" d="M2996,530.3h-72.5V256.2h67.4v39c11.5-18.4,21.9-30.5,31.1-36.4c9.2-5.8,19.7-8.8,31.4-8.8
					c16.5,0,32.4,4.6,47.7,13.7l-22.5,63.2c-12.2-7.9-23.6-11.9-34.1-11.9c-10.2,0-18.8,2.8-25.8,8.4c-7.1,5.6-12.6,15.7-16.6,30.3
					c-4,14.6-6.1,45.3-6.1,91.9L2996,530.3L2996,530.3z"/>
				<path class="st0" d="M3276.2,443l72.3,12.1c-9.3,26.5-24,46.7-44,60.5c-20,13.9-45.1,20.8-75.2,20.8
					c-47.7,0-82.9-15.6-105.8-46.7c-18.1-24.9-27.1-56.4-27.1-94.5c0-45.4,11.9-81,35.6-106.7c23.7-25.7,53.8-38.6,90.1-38.6
					c40.8,0,72.9,13.5,96.5,40.4s34.8,68.2,33.8,123.7h-181.7c0.5,21.5,6.4,38.2,17.5,50.2c11.2,12,25.1,17.9,41.8,17.9
					c11.4,0,20.9-3.1,28.6-9.3C3266.4,466.8,3272.3,456.8,3276.2,443z M3280.4,369.7c-0.5-21-5.9-36.9-16.3-47.9
					c-10.3-10.9-22.9-16.4-37.7-16.4c-15.8,0-28.9,5.8-39.2,17.3s-15.4,27.2-15.2,47H3280.4z"/>
				<path class="st0" d="M3368.4,452.1l72.8-11.1c3.1,14.1,9.4,24.8,18.8,32.1c9.5,7.3,22.7,11,39.7,11c18.7,0,32.9-3.4,42.3-10.3
					c6.4-4.8,9.5-11.3,9.5-19.4c0-5.5-1.7-10.1-5.2-13.7c-3.6-3.4-11.7-6.6-24.3-9.5c-58.5-12.9-95.6-24.7-111.2-35.4
					c-21.7-14.8-32.5-35.4-32.5-61.7c0-23.7,9.4-43.7,28.1-59.9c18.8-16.2,47.8-24.3,87.2-24.3c37.5,0,65.4,6.1,83.6,18.3
					c18.2,12.2,30.8,30.3,37.7,54.2l-68.4,12.6c-2.9-10.7-8.5-18.8-16.6-24.5c-8.2-5.7-19.8-8.5-35-8.5c-19.1,0-32.8,2.7-41,8
					c-5.5,3.8-8.3,8.7-8.3,14.7c0,5.2,2.4,9.5,7.2,13.2c6.5,4.8,29.1,11.6,67.7,20.4c38.6,8.8,65.6,19.5,80.9,32.3
					c15.1,12.9,22.7,30.9,22.7,53.9c0,25.1-10.5,46.7-31.5,64.8c-21,18.1-52,27.1-93.2,27.1c-37.3,0-66.9-7.6-88.6-22.7
					C3389.4,498.6,3375.2,478,3368.4,452.1z"/>
				<path class="st0" d="M3644,452.1l72.8-11.1c3.1,14.1,9.4,24.8,18.8,32.1c9.5,7.3,22.7,11,39.7,11c18.8,0,32.9-3.4,42.3-10.3
					c6.4-4.8,9.5-11.3,9.5-19.4c0-5.5-1.7-10.1-5.2-13.7c-3.6-3.4-11.7-6.6-24.3-9.5c-58.5-12.9-95.6-24.7-111.2-35.4
					c-21.7-14.8-32.5-35.4-32.5-61.7c0-23.7,9.4-43.7,28.1-59.9c18.7-16.2,47.8-24.3,87.2-24.3c37.5,0,65.4,6.1,83.6,18.3
					c18.2,12.2,30.8,30.3,37.7,54.2l-68.4,12.6c-2.9-10.7-8.5-18.8-16.6-24.5c-8.2-5.7-19.8-8.5-35-8.5c-19.1,0-32.8,2.7-41,8
					c-5.5,3.8-8.3,8.7-8.3,14.7c0,5.2,2.4,9.5,7.2,13.2c6.5,4.8,29.1,11.6,67.7,20.4c38.6,8.8,65.6,19.5,80.9,32.3
					c15.1,12.9,22.7,30.9,22.7,53.9c0,25.1-10.5,46.7-31.5,64.8c-21,18.1-52,27.1-93.2,27.1c-37.3,0-66.9-7.6-88.6-22.7
					C3664.9,498.6,3650.7,478,3644,452.1z"/>
			</g>
		</g>
	</g>
	<path id="Infinity_1_" class="st0" d="M513.2,445.7l14,30.7c48.9,107.6,99.1,245.2,223.2,241c132.8-4.5,287.1-179.8,328.5-364.4
		c46.2-206-49-288-150.1-267.5c-85.3,17.3-259.3,169.1-347.6,239c0,0-1.3,0.9-1.7,2.5c-0.4,1.5,0.6,3.5,0.6,3.5l18.8,35.3
		c0,0,0.9,1.9,2.9,2.4c2.1,0.6,3.7-0.9,3.7-0.9c49.8-40.2,154.7-114.6,182-135.2c61.3-46.1,96.4-72.5,150.3-54.5
		c88.6,29.7,82.1,202.1-33.9,343.8C805.2,642,711.6,626.5,667.6,562.1c-16-23.5-42.2-77.8-74.6-143.3c-6.7-13.6-27.4-50.7-36.4-68
		c0,0-0.7-1.7-2.7-2.2s-3.8,0.8-3.8,0.8l-56.9,45c0,0-130.6,100.1-160.6,122.3c-54.5,40.3-107.4,49.8-137.2,20.9
		c-28.2-27.4-53.3-136.1,30.9-251.5c68.6-94,145.9-80.4,214,19.3c5.9,8.6,22.6,39.1,33.3,59.7c0,0,0.9,1.8,2.8,2.2
		c1.9,0.4,3.5-0.9,3.5-0.9l56.6-44.9c0,0,1.3-0.7,1.7-2.5c0.4-1.7-0.6-3.1-0.6-3.1c-39-74.4-82.2-125.7-139.1-149.3
		c-60.6-25.1-187-43.5-275.4,182.7c-51.8,132.6-17.5,314.2,108.8,283.6c68.6-16.6,221.7-145,275-188.4c0,0,1.5-1.2,3.5-0.7
		C512.5,444.1,513.2,445.7,513.2,445.7z"/>
</g>
</svg>
